# xmcd
#
# Track frame offsets:
#	150
#	15309
#	45119
#	57691
#	77641
#	96484
#	117956
#	132848
#	158672
#	176764
#	194021
#	213967
#
# Disc length: 3015 seconds
#
# Revision: 0
# Processed by: cddbd v1.5.2PL0 Copyright (c) Steve Scherf et al.
# Submitted via: dBpowerAMP V4.0
#
DISCID=9d0bc50c
DTITLE=Various Artist - R&B Ballads - Forever Gold
DYEAR=1900
DGENRE=R&B
TTITLE0=Delfonics - 01  La La La (Means I Love You)
TTITLE1=Marvin Gaye - 02 Lets Get It On
TTITLE2=Percy Sledge - 03 The Dark End of the Street
TTITLE3=Teddy Pendergrass - 04 Close the Door
TTITLE4=Harold Melvin and the Blue Notes - 05 Could It Be I'm Falling In Love
TTITLE5=Trammps - 06 You Make Me Feel Brand New
TTITLE6=Delfonics - 07 Didn't I
TTITLE7=Billy Paul with Harold Melvin and the Blue Notes - 08 Me and Mrs Jones
TTITLE8=Marvin Gaye - Whats Going On
TTITLE9=Percy Sledge - 10 Try A Little Tenderness
TTITLE10=Teddy Pendergrass - 11 Can't We Try
TTITLE11=Miracles - 12 I Second that Emotion
EXTD=
EXTT0=
EXTT1=
EXTT2=
EXTT3=
EXTT4=
EXTT5=
EXTT6=
EXTT7=
EXTT8=
EXTT9=
EXTT10=
EXTT11=
PLAYORDER=
